<?xml version="1.0" encoding="utf-8"?>
<!-- Generator: Adobe Illustrator 26.0.3, SVG Export Plug-In . SVG Version: 6.00 Build 0)  -->
<svg version="1.1" id="Layer_1" xmlns="http://www.w3.org/2000/svg" xmlns:xlink="http://www.w3.org/1999/xlink" x="0px" y="0px"
	 viewBox="0 0 40 40" style="enable-background:new 0 0 40 40;" xml:space="preserve">
<style type="text/css">
	.st0{fill:#FFFFFF;}
</style>
<path class="st0" d="M35.9,20.4v-12h-6v-2c0-1.1-0.9-2-2-2h-22c-1.1,0-2,0.9-2,2v6c0,1.1,0.9,2,2,2h22c1.1,0,2-0.9,2-2v-2h4v8h-18v4
	h-1c-0.6,0-1,0.4-1,1v10c0,0.6,0.4,1,1,1h4c0.6,0,1-0.4,1-1v-10c0-0.6-0.4-1-1-1h-1v-2H35.9z M27.9,8.4h-22v-2h22V8.4z"/>
</svg>
